# Blender v2.92.0 OBJ File: 'main_ship01.blend'
# www.blender.org
o Cube_Cube.003
v -1.018421 0.045751 0.650410
v -0.751793 -0.643876 0.650410
v -0.388918 0.940203 -1.057411
v -0.895340 -0.984060 -1.179533
v -0.587670 -0.584150 3.054715
v -0.158754 0.461578 2.674903
v -1.074381 -0.365795 1.695735
v -1.074381 0.187807 1.695735
v -0.884675 -0.427729 3.085398
v -1.045848 -0.079576 3.085398
v -0.315971 -0.341494 4.724587
v -0.194002 0.023085 4.411261
v -0.436992 -0.291928 4.626718
v -0.436992 -0.212054 4.522543
v -0.707393 -1.347881 -3.858147
v -0.282473 0.037773 -3.919193
v -0.991911 -0.735318 -1.623619
v -0.991911 0.641741 -1.623619
v -0.991911 -1.006475 -3.619991
v -0.671472 0.364513 -3.927206
v -0.565635 0.467231 -4.208712
v -0.991911 -1.113105 -3.664289
v -0.991911 -0.822390 -1.523921
v -0.991911 0.750251 -1.523921
v -1.005191 0.364513 -3.927206
v -1.417696 -1.006475 -3.619991
v -1.417696 -0.735318 -1.623619
v -1.417696 0.641741 -1.623619
v -1.925890 -0.124900 -4.303332
v -2.600653 -1.577397 -3.885308
v -1.594745 -0.936057 -1.422331
v -1.417696 0.938086 -1.168297
v -2.077305 0.236436 -3.455155
v -2.300615 -0.790620 -2.677109
v -1.834692 -0.590216 -1.201646
v -1.846052 0.427530 -1.201646
v -2.309845 -0.016427 -2.991802
v -2.309845 -0.582840 -2.475330
v -2.309845 -0.411774 -0.959367
v -2.309845 0.126760 -0.959366
v -2.619215 -0.005326 -3.185956
v -2.619215 -0.429222 -2.520255
v -2.619215 0.101834 -0.566266
v -2.619215 -0.301198 -0.566267
v -3.026370 0.116477 -3.566970
v -3.026370 -0.644545 -2.673317
v -3.026370 0.239501 -1.094942
v -3.026370 -0.109822 -1.094943
v -4.295747 0.467096 -3.613705
v -4.295747 -0.038751 -3.199347
v -4.295747 0.263610 -2.068097
v -4.295747 0.053702 -2.124390
v -4.295747 0.324651 -3.408752
v -4.295747 0.075810 -3.119777
v -4.295747 0.114654 -2.176309
v -4.295747 0.214617 -2.138304
v -4.521265 0.354678 -3.164653
v -4.521265 0.091987 -2.940458
v -4.521265 0.277462 -2.179001
v -4.521265 0.143891 -2.208487
v -4.521265 0.564054 -3.408334
v -4.521265 -0.047991 -3.120312
v -4.521265 0.349743 -2.069259
v -4.521265 0.063991 -2.113754
v -5.752254 0.143693 -4.400857
v -5.718341 -0.011453 -4.243215
v -5.424156 0.105166 -2.875732
v -5.429395 -0.054811 -2.900085
v 1.018421 0.045751 0.650410
v 0.751793 -0.643876 0.650410
v 0.388918 0.940203 -1.057411
v 0.895340 -0.984060 -1.179533
v 0.000000 -1.549807 -0.162970
v 0.000000 0.558749 1.282342
v 0.000000 -1.199939 0.721203
v 0.587670 -0.584150 3.054715
v 0.158754 0.461578 2.674903
v 0.000000 -0.501919 2.590010
v 1.074381 -0.365795 1.695735
v 1.074381 0.187807 1.695735
v 0.884675 -0.427729 3.085398
v 1.045848 -0.079576 3.085398
v 0.315971 -0.341494 4.724587
v 0.194002 0.023085 4.411261
v 0.436992 -0.291928 4.626718
v 0.436992 -0.212054 4.522543
v 0.000000 -1.830505 -2.616396
v 0.707393 -1.347881 -3.858147
v 0.000000 -1.441708 -4.646022
v 0.282473 0.037773 -3.919193
v 0.991911 -0.735318 -1.623619
v 0.991911 0.641741 -1.623619
v 0.991911 -1.006475 -3.619991
v 0.671472 0.364513 -3.927206
v 0.565635 0.467231 -4.208712
v 0.991911 -1.113105 -3.664289
v 0.991911 -0.822390 -1.523921
v 0.991911 0.750251 -1.523921
v 1.005191 0.364513 -3.927206
v 1.417696 -1.006475 -3.619991
v 1.417696 -0.735318 -1.623619
v 1.417696 0.641741 -1.623619
v 1.925890 -0.124900 -4.303332
v 2.600653 -1.577397 -3.885308
v 1.594745 -0.936057 -1.422331
v 1.417696 0.938086 -1.168297
v 2.077305 0.236436 -3.455155
v 2.300615 -0.790620 -2.677109
v 1.834692 -0.590216 -1.201646
v 1.846052 0.427530 -1.201646
v 2.309845 -0.016427 -2.991802
v 2.309845 -0.582840 -2.475330
v 2.309845 -0.411774 -0.959367
v 2.309845 0.126760 -0.959366
v 2.619215 -0.005326 -3.185956
v 2.619215 -0.429222 -2.520255
v 2.619215 0.101834 -0.566266
v 2.619215 -0.301198 -0.566267
v 3.026370 0.116477 -3.566970
v 3.026370 -0.644545 -2.673317
v 3.026370 0.239501 -1.094942
v 3.026370 -0.109822 -1.094943
v 4.295747 0.467096 -3.613705
v 4.295747 -0.038751 -3.199347
v 4.295747 0.263610 -2.068097
v 4.295747 0.053702 -2.124390
v 4.295747 0.324651 -3.408752
v 4.295747 0.075810 -3.119777
v 4.295747 0.114654 -2.176309
v 4.295747 0.214617 -2.138304
v 4.521265 0.354678 -3.164653
v 4.521265 0.091987 -2.940458
v 4.521265 0.277462 -2.179001
v 4.521265 0.143891 -2.208487
v 4.521265 0.564054 -3.408334
v 4.521265 -0.047991 -3.120312
v 4.521265 0.349743 -2.069259
v 4.521265 0.063991 -2.113754
v 5.752254 0.143693 -4.400857
v 5.718341 -0.011453 -4.243215
v 5.424156 0.105166 -2.875732
v 5.429395 -0.054811 -2.900085
v 0.000000 0.461578 2.674903
v 0.000000 0.940203 -1.057411
v 0.000000 0.037773 -3.919193
vt 0.933681 0.285228
vt 0.885016 0.302957
vt 0.880607 0.254656
vt 0.939512 0.285641
vt 0.935929 0.340056
vt 0.930652 0.338215
vt 0.278803 0.557578
vt 0.275201 0.579023
vt 0.253759 0.578639
vt 0.908967 0.353681
vt 0.880607 0.348685
vt 0.885047 0.328178
vt 0.892480 0.321122
vt 0.896302 0.332056
vt 0.268154 0.624096
vt 0.892644 0.310732
vt 0.891740 0.319871
vt 0.890990 0.319068
vt 0.889980 0.294088
vt 0.890239 0.310278
vt 0.939936 0.334358
vt 0.908827 0.347882
vt 0.943913 0.311188
vt 0.890659 0.321789
vt 0.890523 0.322089
vt 0.890701 0.321880
vt 0.890697 0.321937
vt 0.897954 0.295918
vt 0.880547 0.305539
vt 0.917252 0.372650
vt 0.925268 0.303369
vt 0.893213 0.308959
vt 0.882010 0.257081
vt 0.928358 0.296280
vt 0.878677 0.371731
vt 0.896096 0.310513
vt 0.910087 0.341216
vt 0.923361 0.305656
vt 0.971659 0.296486
vt 0.960950 0.371479
vt 0.942935 0.362771
vt 0.910871 0.339232
vt 0.924524 0.332661
vt 0.939223 0.305425
vt 0.962622 0.297261
vt 0.964344 0.300617
vt 0.952327 0.333968
vt 0.944160 0.362413
vt 0.941988 0.359637
vt 0.858156 0.909684
vt 0.866772 0.945753
vt 0.855940 0.934789
vt 0.958348 0.305365
vt 0.949390 0.311664
vt 0.946087 0.325608
vt 0.952071 0.326880
vt 0.948492 0.323192
vt 0.955104 0.311780
vt 0.951941 0.313798
vt 0.826157 0.952099
vt 0.841516 0.935447
vt 0.847073 0.907592
vt 0.866772 0.897989
vt 0.841104 0.897818
vt 0.900545 0.328365
vt 0.909148 0.301390
vt 0.920241 0.333928
vt 0.938870 0.277745
vt 0.947434 0.355372
vt 0.884899 0.260089
vt 0.920680 0.298997
vt 0.907818 0.295532
vt 0.884899 0.364987
vt 0.842632 0.899507
vt 0.847746 0.935216
vt 0.836053 0.944456
vt 0.909771 0.300413
vt 0.909562 0.301768
vt 0.909715 0.300744
vt 0.909602 0.301433
vt 0.909217 0.301065
vt 0.909190 0.301287
vt 0.909319 0.300968
vt 0.956468 0.270782
vt 0.959588 0.367726
vt 0.956468 0.366861
vt 0.858886 0.940889
vt 0.868831 0.952249
vt 0.868831 0.897264
vt 0.851845 0.917070
vt 0.857037 0.917959
vt 0.964877 0.276937
vt 0.957278 0.366297
vt 0.963071 0.277448
vt 0.972107 0.266370
vt 0.961932 0.366075
vt 0.971577 0.261829
vt 0.982499 0.278966
vt 0.968005 0.258108
vt 0.986967 0.275101
vt 0.253125 0.535952
vt 0.278803 0.501106
vt 0.884124 0.331445
vt 0.878275 0.257257
vt 0.933681 0.285228
vt 0.880607 0.254656
vt 0.885016 0.302957
vt 0.930652 0.338215
vt 0.253759 0.578639
vt 0.908967 0.353681
vt 0.885047 0.328178
vt 0.892480 0.321122
vt 0.892644 0.310732
vt 0.890990 0.319068
vt 0.891740 0.319871
vt 0.889980 0.294088
vt 0.890239 0.310278
vt 0.939936 0.334358
vt 0.943913 0.311188
vt 0.908827 0.347882
vt 0.890523 0.322089
vt 0.890659 0.321789
vt 0.890701 0.321880
vt 0.890697 0.321937
vt 0.897954 0.295918
vt 0.893213 0.308959
vt 0.925268 0.303369
vt 0.882010 0.257081
vt 0.928358 0.296280
vt 0.878677 0.371731
vt 0.896096 0.310513
vt 0.910087 0.341216
vt 0.923361 0.305656
vt 0.971659 0.296486
vt 0.942935 0.362771
vt 0.960950 0.371479
vt 0.910871 0.339232
vt 0.924524 0.332661
vt 0.939223 0.305425
vt 0.962622 0.297261
vt 0.964344 0.300617
vt 0.944160 0.362413
vt 0.952327 0.333968
vt 0.941988 0.359637
vt 0.858156 0.909684
vt 0.855940 0.934789
vt 0.866772 0.945753
vt 0.949390 0.311664
vt 0.958348 0.305365
vt 0.946087 0.325608
vt 0.952071 0.326880
vt 0.948492 0.323192
vt 0.951941 0.313798
vt 0.955104 0.311780
vt 0.841516 0.935447
vt 0.826157 0.952099
vt 0.847073 0.907592
vt 0.866772 0.897989
vt 0.841104 0.897818
vt 0.900545 0.328365
vt 0.920241 0.333928
vt 0.909148 0.301390
vt 0.938870 0.277745
vt 0.947434 0.355372
vt 0.884899 0.260089
vt 0.907818 0.295532
vt 0.920680 0.298997
vt 0.884899 0.364987
vt 0.842632 0.899507
vt 0.836053 0.944456
vt 0.847746 0.935216
vt 0.909771 0.300413
vt 0.909562 0.301768
vt 0.909715 0.300744
vt 0.909602 0.301433
vt 0.909190 0.301287
vt 0.909217 0.301065
vt 0.909319 0.300968
vt 0.956468 0.270782
vt 0.956468 0.366861
vt 0.959588 0.367726
vt 0.868831 0.952249
vt 0.858886 0.940889
vt 0.868831 0.897264
vt 0.851845 0.917070
vt 0.857037 0.917959
vt 0.964877 0.276937
vt 0.963071 0.277448
vt 0.957278 0.366297
vt 0.972107 0.266370
vt 0.961932 0.366075
vt 0.971577 0.261829
vt 0.968005 0.258108
vt 0.982499 0.278966
vt 0.986967 0.275101
vt 0.253125 0.535952
vn -0.9671 0.2527 0.0289
vn 0.0000 0.9537 -0.3007
vn -0.5856 -0.7537 0.2983
vn -0.6328 -0.7720 0.0605
vn 0.6171 0.0324 0.7862
vn -0.5874 -0.7581 0.2832
vn -0.9025 -0.4178 0.1046
vn -0.4639 -0.8856 0.0239
vn -0.9986 0.0000 -0.0535
vn -0.1424 0.9797 -0.1408
vn 0.4223 -0.9043 0.0630
vn -0.5813 0.7500 0.3154
vn 0.9110 -0.4040 -0.0835
vn -0.8691 -0.4023 0.2879
vn -0.5079 -0.8368 0.2042
vn 0.1497 -0.9886 0.0143
vn -0.4513 0.8745 0.1775
vn -0.4355 0.8748 0.2121
vn -0.3570 0.6747 0.6461
vn 0.9174 -0.3869 -0.0931
vn -0.4549 0.8905 0.0103
vn -0.7841 0.4925 0.3776
vn -0.9998 0.0000 0.0205
vn -0.5381 -0.8409 0.0576
vn -0.4395 -0.8746 0.2047
vn -0.3217 -0.9299 -0.1781
vn -0.6119 0.0000 0.7909
vn -0.0657 0.9509 -0.3023
vn -0.5452 0.8083 0.2224
vn -0.8653 -0.5012 0.0074
vn -0.7190 0.1910 -0.6683
vn 0.0000 -0.9909 0.1346
vn -1.0000 0.0000 0.0000
vn -0.8848 0.4319 -0.1751
vn -0.9334 0.1376 -0.3313
vn 0.8127 -0.1530 0.5623
vn 0.0000 0.9928 -0.1195
vn 0.0000 -0.2187 -0.9758
vn 0.0000 0.0000 1.0000
vn -0.8952 0.3295 -0.3002
vn 0.7872 -0.6111 0.0830
vn 0.8498 0.4418 -0.2876
vn 0.5021 -0.3302 -0.7993
vn -0.4541 -0.8853 0.0999
vn -0.0766 -0.0009 0.9971
vn -0.5966 -0.6829 0.4215
vn 0.2321 0.9091 -0.3459
vn -0.8155 -0.2263 -0.5327
vn -0.8767 -0.3546 0.3250
vn 0.4543 -0.0000 0.8909
vn -0.7218 0.6920 0.0154
vn 0.4024 -0.6168 -0.6765
vn 0.7858 0.0000 0.6184
vn -0.1313 0.9905 -0.0405
vn -0.6299 -0.0000 0.7767
vn -0.4845 -0.8729 0.0572
vn 0.3544 -0.7119 -0.6063
vn -0.7923 -0.0000 0.6102
vn 0.3641 0.9306 -0.0381
vn -0.0389 -0.9984 0.0411
vn 0.2676 0.9623 -0.0479
vn -0.1941 -0.9774 0.0841
vn -0.1450 -0.6270 -0.7654
vn 1.0000 -0.0000 0.0000
vn -0.6281 -0.5896 -0.5078
vn -0.1766 -0.3498 0.9200
vn 0.2550 0.9640 0.0755
vn -0.9776 0.0000 0.2103
vn -0.6446 -0.0944 0.7587
vn -0.3987 0.9106 0.1088
vn 0.0343 -0.9933 0.1105
vn 0.6457 -0.4702 -0.6017
vn 0.5353 -0.2003 -0.8206
vn -0.5875 -0.8019 0.1089
vn -0.9088 0.2166 0.3565
vn -0.8232 -0.3183 -0.4701
vn -0.6673 -0.7211 0.1864
vn -0.6035 -0.7922 0.0906
vn -0.9414 -0.1232 0.3140
vn 0.5304 -0.1629 0.8319
vn -0.5643 0.8235 -0.0580
vn -0.7666 0.6416 0.0243
vn 0.3554 -0.8853 0.2999
vn -0.5049 -0.8175 0.2770
vn -0.0003 -0.9995 -0.0322
vn -0.3783 0.9141 0.1463
vn -0.0810 0.9882 0.1301
vn -0.9160 -0.3541 -0.1885
vn -0.1647 0.7827 0.6001
vn 0.8114 0.5806 0.0676
vn -0.9421 0.1534 -0.2982
vn -0.9727 0.1571 -0.1710
vn -0.9628 0.2615 0.0688
vn -0.4033 0.8972 -0.1802
vn 0.3855 -0.4161 -0.8235
vn -0.2639 -0.9625 0.0631
vn -0.9995 -0.0215 -0.0236
vn -0.3013 -0.9475 0.1069
vn 0.4604 0.0051 0.8877
vn -0.3226 -0.7984 -0.5084
vn 0.0796 0.9944 -0.0701
vn -0.5976 -0.2077 0.7744
vn 0.5438 -0.7079 -0.4508
vn 0.3264 0.9441 -0.0470
vn -0.1381 -0.9879 0.0701
vn -0.0942 -0.7580 -0.6455
vn -0.5458 -0.5439 -0.6373
vn -0.2300 -0.2098 0.9503
vn 0.2205 0.9718 0.0842
vn -0.6436 -0.1178 0.7563
vn 0.6413 -0.3267 -0.6943
vn -0.6165 -0.1026 -0.7806
vn 0.0000 -0.0878 0.9961
vn 0.0000 0.9976 0.0696
vn 0.0000 0.9870 0.1609
vn 0.0000 0.4409 -0.8975
vn 0.9671 0.2527 0.0289
vn 0.5856 -0.7537 0.2983
vn 0.6328 -0.7720 0.0605
vn -0.6171 0.0324 0.7862
vn 0.5874 -0.7581 0.2832
vn 0.9025 -0.4178 0.1046
vn 0.4639 -0.8856 0.0239
vn 0.9986 0.0000 -0.0535
vn 0.1424 0.9797 -0.1408
vn -0.4223 -0.9043 0.0630
vn 0.5813 0.7500 0.3154
vn -0.9110 -0.4040 -0.0835
vn 0.8691 -0.4023 0.2879
vn 0.5079 -0.8368 0.2042
vn -0.1497 -0.9886 0.0143
vn 0.4513 0.8745 0.1775
vn 0.4355 0.8748 0.2121
vn 0.3570 0.6747 0.6461
vn -0.9174 -0.3869 -0.0931
vn 0.4549 0.8905 0.0103
vn 0.7841 0.4925 0.3776
vn 0.9998 0.0000 0.0205
vn 0.5381 -0.8409 0.0576
vn 0.4395 -0.8746 0.2047
vn 0.3217 -0.9299 -0.1781
vn 0.6119 0.0000 0.7909
vn 0.0657 0.9509 -0.3023
vn 0.5452 0.8083 0.2224
vn 0.8653 -0.5012 0.0074
vn 0.7190 0.1910 -0.6683
vn 0.8848 0.4319 -0.1751
vn 0.9334 0.1376 -0.3313
vn -0.8127 -0.1530 0.5623
vn 0.8952 0.3295 -0.3002
vn -0.7872 -0.6111 0.0830
vn -0.8498 0.4418 -0.2876
vn -0.5021 -0.3302 -0.7993
vn 0.4541 -0.8853 0.0999
vn 0.0766 -0.0009 0.9971
vn 0.5966 -0.6829 0.4215
vn -0.2321 0.9091 -0.3459
vn 0.8155 -0.2263 -0.5327
vn 0.8767 -0.3546 0.3250
vn -0.4543 -0.0000 0.8909
vn 0.7218 0.6920 0.0154
vn -0.4024 -0.6168 -0.6765
vn -0.7858 0.0000 0.6184
vn 0.1313 0.9905 -0.0405
vn 0.6299 -0.0000 0.7767
vn 0.4845 -0.8729 0.0572
vn -0.3544 -0.7119 -0.6063
vn 0.7923 -0.0000 0.6102
vn -0.3641 0.9306 -0.0381
vn 0.0389 -0.9984 0.0411
vn -0.2676 0.9623 -0.0479
vn 0.1941 -0.9774 0.0841
vn 0.1450 -0.6270 -0.7654
vn 0.6281 -0.5896 -0.5078
vn 0.1766 -0.3498 0.9200
vn -0.2550 0.9640 0.0755
vn 0.9776 0.0000 0.2103
vn 0.6446 -0.0944 0.7587
vn 0.3987 0.9106 0.1088
vn -0.0343 -0.9933 0.1105
vn -0.6457 -0.4702 -0.6017
vn -0.5353 -0.2003 -0.8206
vn 0.5875 -0.8019 0.1089
vn 0.9088 0.2166 0.3565
vn 0.8232 -0.3183 -0.4701
vn 0.6673 -0.7211 0.1864
vn 0.6035 -0.7922 0.0906
vn 0.9414 -0.1232 0.3140
vn -0.5304 -0.1629 0.8319
vn 0.5643 0.8235 -0.0580
vn 0.7666 0.6416 0.0243
vn -0.3554 -0.8853 0.2999
vn 0.5049 -0.8175 0.2770
vn 0.0003 -0.9995 -0.0322
vn 0.3783 0.9141 0.1463
vn 0.0810 0.9882 0.1301
vn 0.9160 -0.3541 -0.1885
vn 0.1647 0.7827 0.6001
vn -0.8114 0.5806 0.0676
vn 0.9421 0.1534 -0.2982
vn 0.9727 0.1571 -0.1710
vn 0.9628 0.2615 0.0688
vn 0.4033 0.8972 -0.1802
vn -0.3855 -0.4161 -0.8235
vn 0.2639 -0.9625 0.0631
vn 0.9995 -0.0215 -0.0236
vn 0.3013 -0.9475 0.1069
vn -0.4604 0.0051 0.8877
vn 0.3226 -0.7984 -0.5084
vn -0.0796 0.9944 -0.0701
vn 0.5976 -0.2077 0.7744
vn -0.5438 -0.7079 -0.4508
vn -0.3264 0.9441 -0.0470
vn 0.1381 -0.9879 0.0701
vn 0.0942 -0.7580 -0.6455
vn 0.5458 -0.5439 -0.6373
vn 0.2300 -0.2098 0.9503
vn -0.2205 0.9718 0.0842
vn 0.6436 -0.1178 0.7563
vn -0.6413 -0.3267 -0.6943
vn 0.6165 -0.1026 -0.7806
s off
f 3/1/1 4/2/1 2/3/1
f 144/4/2 145/5/2 16/6/2
f 73/7/3 75/8/3 2/9/3
f 4/2/4 15/10/4 87/11/4
f 6/12/5 5/13/5 78/14/5
f 2/9/6 75/8/6 78/15/6
f 7/16/7 9/17/7 10/18/7
f 5/13/8 9/17/8 7/16/8
f 1/19/9 7/16/9 8/20/9
f 6/12/10 1/19/10 8/20/10
f 30/21/11 26/22/11 31/23/11
f 10/18/12 14/24/12 12/25/12
f 5/13/13 6/12/13 12/25/13
f 10/18/14 9/17/14 13/26/14
f 5/13/15 11/27/15 13/26/15
f 5/13/16 2/28/16 78/14/16
f 10/18/17 6/12/17 8/20/17
f 6/12/18 10/18/18 12/25/18
f 14/24/19 11/27/19 12/25/19
f 11/27/20 5/13/20 12/25/20
f 1/19/21 6/12/21 74/29/21
f 14/24/22 10/18/22 13/26/22
f 8/20/23 7/16/23 10/18/23
f 2/28/24 5/13/24 7/16/24
f 9/17/25 5/13/25 13/26/25
f 89/30/26 87/11/26 15/10/26
f 3/1/27 24/31/27 23/32/27
f 16/6/28 24/31/28 3/1/28
f 3/33/29 1/19/29 74/29/29
f 15/10/30 4/2/30 23/32/30
f 16/6/31 89/30/31 15/10/31
f 17/34/32 26/22/32 19/35/32
f 17/36/33 22/37/33 23/32/33
f 18/38/33 23/32/33 24/31/33
f 18/39/34 21/40/34 20/41/34
f 19/42/35 21/43/35 22/37/35
f 27/44/36 32/45/36 31/23/36
f 20/41/37 28/46/37 18/39/37
f 20/41/38 19/35/38 26/22/38
f 18/39/39 27/44/39 17/34/39
f 30/21/40 33/47/40 29/48/40
f 26/22/41 27/44/41 31/23/41
f 28/46/42 29/48/42 32/45/42
f 26/22/43 29/48/43 25/49/43
f 39/50/44 42/51/44 38/52/44
f 32/45/45 36/53/45 35/54/45
f 30/21/46 31/23/46 35/54/46
f 32/45/47 29/48/47 33/47/47
f 34/55/48 37/56/48 33/47/48
f 35/54/49 38/57/49 34/55/49
f 35/54/50 40/58/50 39/59/50
f 36/53/51 33/47/51 37/56/51
f 38/52/52 41/60/52 37/61/52
f 40/62/53 44/63/53 39/50/53
f 40/62/54 41/60/54 43/64/54
f 47/65/55 52/66/55 48/67/55
f 42/68/56 44/69/56 48/67/56
f 41/70/57 46/71/57 45/72/57
f 43/73/58 48/67/58 44/69/58
f 41/70/59 47/65/59 43/73/59
f 55/74/60 58/75/60 54/76/60
f 47/65/61 45/72/61 49/77/61
f 48/67/62 52/66/62 50/78/62
f 45/72/63 50/78/63 49/77/63
f 50/78/33 53/79/33 49/77/33
f 52/66/33 54/80/33 50/78/33
f 52/66/33 56/81/33 55/82/33
f 51/83/33 53/79/33 56/81/33
f 57/84/64 63/85/64 59/86/64
f 54/76/65 57/87/65 53/88/65
f 56/89/66 60/90/66 55/74/66
f 56/89/67 57/87/67 59/91/67
f 58/92/64 64/93/64 62/94/64
f 57/84/64 62/94/64 61/95/64
f 59/86/64 64/93/64 60/96/64
f 66/97/68 67/98/68 65/99/68
f 64/93/69 67/98/69 68/100/69
f 61/95/70 65/99/70 67/98/70
f 62/94/71 64/93/71 68/100/71
f 61/95/72 66/97/72 65/99/72
f 16/6/73 15/10/73 21/43/73
f 22/37/74 15/10/74 23/32/74
f 4/2/75 3/1/75 23/32/75
f 1/19/76 3/33/76 2/28/76
f 4/101/77 73/7/77 2/9/77
f 73/7/78 4/101/78 87/102/78
f 25/49/38 20/41/38 26/22/38
f 34/55/79 30/21/79 35/54/79
f 31/23/80 32/45/80 35/54/80
f 40/58/81 36/53/81 37/56/81
f 36/53/82 32/45/82 33/47/82
f 46/71/83 42/68/83 48/67/83
f 46/71/84 48/67/84 50/78/84
f 66/97/85 62/94/85 68/100/85
f 63/85/86 61/95/86 67/98/86
f 51/83/87 47/65/87 49/77/87
f 3/1/2 144/4/2 16/6/2
f 1/19/88 2/28/88 7/16/88
f 14/24/89 13/26/89 11/27/89
f 16/6/90 21/43/90 24/31/90
f 17/34/32 27/44/32 26/22/32
f 19/35/91 20/41/91 21/40/91
f 17/36/33 19/42/33 22/37/33
f 18/38/33 17/36/33 23/32/33
f 18/38/92 24/31/92 21/43/92
f 27/44/64 28/46/64 32/45/64
f 20/41/37 25/49/37 28/46/37
f 18/39/39 28/46/39 27/44/39
f 30/21/93 34/55/93 33/47/93
f 28/46/94 25/49/94 29/48/94
f 26/22/95 30/21/95 29/48/95
f 39/50/96 44/63/96 42/51/96
f 34/55/97 38/57/97 37/56/97
f 35/54/98 39/59/98 38/57/98
f 35/54/99 36/53/99 40/58/99
f 38/52/100 42/51/100 41/60/100
f 40/62/53 43/64/53 44/63/53
f 40/62/101 37/61/101 41/60/101
f 47/65/102 51/83/102 52/66/102
f 41/70/103 42/68/103 46/71/103
f 43/73/58 47/65/58 48/67/58
f 41/70/104 45/72/104 47/65/104
f 55/74/105 60/90/105 58/75/105
f 45/72/106 46/71/106 50/78/106
f 50/78/33 54/80/33 53/79/33
f 52/66/33 55/82/33 54/80/33
f 52/66/33 51/83/33 56/81/33
f 51/83/33 49/77/33 53/79/33
f 57/84/64 61/95/64 63/85/64
f 54/76/107 58/75/107 57/87/107
f 56/89/108 59/91/108 60/90/108
f 56/89/109 53/88/109 57/87/109
f 58/92/64 60/96/64 64/93/64
f 57/84/64 58/92/64 62/94/64
f 59/86/64 63/85/64 64/93/64
f 66/97/68 68/100/68 67/98/68
f 64/93/110 63/85/110 67/98/110
f 61/95/111 62/94/111 66/97/111
f 21/43/112 15/10/112 22/37/112
f 6/12/113 78/14/113 143/103/113
f 6/12/114 143/103/114 74/29/114
f 3/33/115 74/29/115 144/104/115
f 16/6/116 145/5/116 89/30/116
f 71/105/117 70/106/117 72/107/117
f 144/4/2 90/108/2 145/5/2
f 73/7/118 70/109/118 75/8/118
f 72/107/119 87/11/119 88/110/119
f 77/111/120 78/14/120 76/112/120
f 70/109/121 78/15/121 75/8/121
f 79/113/122 82/114/122 81/115/122
f 76/112/123 79/113/123 81/115/123
f 69/116/124 80/117/124 79/113/124
f 77/111/125 80/117/125 69/116/125
f 104/118/126 105/119/126 100/120/126
f 82/114/127 84/121/127 86/122/127
f 76/112/128 84/121/128 77/111/128
f 82/114/129 85/123/129 81/115/129
f 76/112/130 85/123/130 83/124/130
f 76/112/131 78/14/131 70/125/131
f 82/114/132 80/117/132 77/111/132
f 77/111/133 84/121/133 82/114/133
f 86/122/134 84/121/134 83/124/134
f 83/124/135 84/121/135 76/112/135
f 69/116/136 74/29/136 77/111/136
f 86/122/137 85/123/137 82/114/137
f 80/117/138 82/114/138 79/113/138
f 70/125/139 79/113/139 76/112/139
f 81/115/140 85/123/140 76/112/140
f 89/30/141 88/110/141 87/11/141
f 71/105/142 97/126/142 98/127/142
f 90/108/143 71/105/143 98/127/143
f 71/128/144 74/29/144 69/116/144
f 88/110/145 97/126/145 72/107/145
f 90/108/146 88/110/146 89/30/146
f 91/129/32 93/130/32 100/120/32
f 91/131/64 97/126/64 96/132/64
f 92/133/64 98/127/64 97/126/64
f 92/134/147 94/135/147 95/136/147
f 93/137/148 96/132/148 95/138/148
f 101/139/149 105/119/149 106/140/149
f 94/135/37 92/134/37 102/141/37
f 94/135/38 100/120/38 93/130/38
f 92/134/39 91/129/39 101/139/39
f 104/118/150 103/142/150 107/143/150
f 100/120/151 105/119/151 101/139/151
f 102/141/152 106/140/152 103/142/152
f 100/120/153 99/144/153 103/142/153
f 113/145/154 112/146/154 116/147/154
f 106/140/155 109/148/155 110/149/155
f 104/118/156 109/148/156 105/119/156
f 106/140/157 107/143/157 103/142/157
f 108/150/158 107/143/158 111/151/158
f 109/148/159 108/150/159 112/152/159
f 109/148/160 113/153/160 114/154/160
f 110/149/161 111/151/161 107/143/161
f 112/146/162 111/155/162 115/156/162
f 114/157/163 113/145/163 118/158/163
f 114/157/164 117/159/164 115/156/164
f 121/160/165 122/161/165 126/162/165
f 116/163/166 122/161/166 118/164/166
f 115/165/167 119/166/167 120/167/167
f 117/168/168 118/164/168 122/161/168
f 115/165/169 117/168/169 121/160/169
f 129/169/170 128/170/170 132/171/170
f 121/160/171 123/172/171 119/166/171
f 122/161/172 124/173/172 126/162/172
f 119/166/173 123/172/173 124/173/173
f 124/173/64 123/172/64 127/174/64
f 126/162/64 124/173/64 128/175/64
f 126/162/64 129/176/64 130/177/64
f 125/178/64 130/177/64 127/174/64
f 131/179/33 133/180/33 137/181/33
f 128/170/174 127/182/174 131/183/174
f 130/184/175 129/169/175 134/185/175
f 130/184/176 133/186/176 131/183/176
f 132/187/33 136/188/33 138/189/33
f 131/179/33 135/190/33 136/188/33
f 133/180/33 134/191/33 138/189/33
f 140/192/177 139/193/177 141/194/177
f 138/189/178 142/195/178 141/194/178
f 135/190/179 141/194/179 139/193/179
f 136/188/180 142/195/180 138/189/180
f 135/190/181 139/193/181 140/192/181
f 90/108/182 95/138/182 88/110/182
f 96/132/183 97/126/183 88/110/183
f 72/107/184 97/126/184 71/105/184
f 69/116/185 70/125/185 71/128/185
f 72/196/186 70/109/186 73/7/186
f 73/7/187 87/102/187 72/196/187
f 99/144/38 100/120/38 94/135/38
f 108/150/188 109/148/188 104/118/188
f 105/119/189 109/148/189 106/140/189
f 114/154/190 111/151/190 110/149/190
f 110/149/191 107/143/191 106/140/191
f 120/167/192 122/161/192 116/163/192
f 120/167/193 124/173/193 122/161/193
f 140/192/194 142/195/194 136/188/194
f 137/181/195 141/194/195 135/190/195
f 125/178/196 123/172/196 121/160/196
f 71/105/2 90/108/2 144/4/2
f 69/116/197 79/113/197 70/125/197
f 86/122/198 83/124/198 85/123/198
f 90/108/199 98/127/199 95/138/199
f 91/129/32 100/120/32 101/139/32
f 93/130/200 95/136/200 94/135/200
f 91/131/64 96/132/64 93/137/64
f 92/133/64 97/126/64 91/131/64
f 92/133/201 95/138/201 98/127/201
f 101/139/33 106/140/33 102/141/33
f 94/135/37 102/141/37 99/144/37
f 92/134/39 101/139/39 102/141/39
f 104/118/202 107/143/202 108/150/202
f 102/141/203 103/142/203 99/144/203
f 100/120/204 103/142/204 104/118/204
f 113/145/205 116/147/205 118/158/205
f 108/150/206 111/151/206 112/152/206
f 109/148/207 112/152/207 113/153/207
f 109/148/208 114/154/208 110/149/208
f 112/146/209 115/156/209 116/147/209
f 114/157/163 118/158/163 117/159/163
f 114/157/210 115/156/210 111/155/210
f 121/160/211 126/162/211 125/178/211
f 115/165/212 120/167/212 116/163/212
f 117/168/168 122/161/168 121/160/168
f 115/165/213 121/160/213 119/166/213
f 129/169/214 132/171/214 134/185/214
f 119/166/215 124/173/215 120/167/215
f 124/173/64 127/174/64 128/175/64
f 126/162/64 128/175/64 129/176/64
f 126/162/64 130/177/64 125/178/64
f 125/178/64 127/174/64 123/172/64
f 131/179/33 137/181/33 135/190/33
f 128/170/216 131/183/216 132/171/216
f 130/184/217 134/185/217 133/186/217
f 130/184/218 131/183/218 127/182/218
f 132/187/33 138/189/33 134/191/33
f 131/179/33 136/188/33 132/187/33
f 133/180/33 138/189/33 137/181/33
f 140/192/177 141/194/177 142/195/177
f 138/189/219 141/194/219 137/181/219
f 135/190/220 140/192/220 136/188/220
f 95/138/221 96/132/221 88/110/221
f 77/111/113 143/103/113 78/14/113
f 77/111/114 74/29/114 143/103/114
f 71/128/115 144/104/115 74/29/115
f 90/108/116 89/30/116 145/5/116
