# Blender v2.92.0 OBJ File: ''
# www.blender.org
o Cube
v -1.000000 -1.000000 -1.000000
v -1.000000 1.000000 -1.000000
v -1.000000 -1.000000 1.000000
v -1.000000 1.000000 1.000000
v 1.000000 -1.000000 -1.000000
v 1.000000 1.000000 -1.000000
v 1.000000 -1.000000 1.000000
v 1.000000 1.000000 1.000000
vt 0.250043 0.749957
vt 0.500000 0.749957
vt 0.500000 0.999914
vt 0.750043 0.749957
vt 0.750043 0.500000
vt 1.000000 0.500000
vt 0.000087 0.749957
vt 0.000087 0.500000
vt 0.250044 0.500000
vt 0.500000 0.250043
vt 0.500000 0.500000
vt 0.250043 0.500000
vt 0.500000 0.500000
vt 0.499913 0.500000
vt 0.250043 0.999914
vt 1.000000 0.749957
vt 0.250043 0.250043
vt 0.499913 0.749957
vn 0.0000 1.0000 0.0000
vn 0.0000 0.0000 -1.0000
vn -1.0000 0.0000 0.0000
vn 0.0000 -1.0000 0.0000
vn 1.0000 0.0000 0.0000
vn 0.0000 0.0000 1.0000
s off
f 5/1/1 1/2/1 3/3/1
f 3/4/2 4/5/2 8/6/2
f 7/7/3 8/8/3 6/9/3
f 2/10/4 6/11/4 8/12/4
f 1/2/5 2/13/5 4/5/5
f 5/1/6 6/9/6 2/14/6
f 5/1/1 3/3/1 7/15/1
f 3/4/2 8/6/2 7/16/2
f 7/7/3 6/9/3 5/1/3
f 2/10/4 8/12/4 4/17/4
f 1/2/5 4/5/5 3/4/5
f 5/1/6 2/14/6 1/18/6
